<svg xmlns="http://www.w3.org/2000/svg" xmlns:xlink="http://www.w3.org/1999/xlink" viewBox="0 0 137.93 182.81"><defs><style>.cls-1,.cls-5{fill:none;}.cls-2{fill:#f2edd8;}.cls-3{fill:#e9cb66;}.cls-4{fill:url(#_10_dpi_20_2);}.cls-5{stroke:#025959;stroke-linecap:round;stroke-linejoin:round;stroke-width:2px;}</style><pattern id="_10_dpi_20_2" data-name="10 dpi 20% 2" width="28.8" height="28.8" patternTransform="translate(96.15 96.15) scale(0.76)" patternUnits="userSpaceOnUse" viewBox="0 0 28.8 28.8"><rect class="cls-1" width="28.8" height="28.8"/><path class="cls-2" d="M28.8,30.24a1.44,1.44,0,1,0-1.44-1.44A1.44,1.44,0,0,0,28.8,30.24Z"/><path class="cls-2" d="M14.4,30.24A1.44,1.44,0,1,0,13,28.8,1.44,1.44,0,0,0,14.4,30.24Z"/><path class="cls-2" d="M28.8,15.84a1.44,1.44,0,1,0-1.44-1.44A1.44,1.44,0,0,0,28.8,15.84Z"/><path class="cls-2" d="M14.4,15.84A1.44,1.44,0,1,0,13,14.4,1.44,1.44,0,0,0,14.4,15.84Z"/><path class="cls-2" d="M7.2,23A1.44,1.44,0,1,0,5.76,21.6,1.44,1.44,0,0,0,7.2,23Z"/><path class="cls-2" d="M21.6,23a1.44,1.44,0,1,0-1.44-1.44A1.44,1.44,0,0,0,21.6,23Z"/><path class="cls-2" d="M7.2,8.64A1.44,1.44,0,1,0,5.76,7.2,1.44,1.44,0,0,0,7.2,8.64Z"/><path class="cls-2" d="M21.6,8.64A1.44,1.44,0,1,0,20.16,7.2,1.44,1.44,0,0,0,21.6,8.64Z"/><path class="cls-2" d="M0,30.24A1.44,1.44,0,0,0,1.44,28.8,1.45,1.45,0,0,0,0,27.36,1.44,1.44,0,0,0-1.44,28.8,1.43,1.43,0,0,0,0,30.24Z"/><path class="cls-2" d="M0,15.84A1.44,1.44,0,0,0,1.44,14.4,1.45,1.45,0,0,0,0,13,1.44,1.44,0,0,0-1.44,14.4,1.43,1.43,0,0,0,0,15.84Z"/><path class="cls-2" d="M28.8,1.44A1.45,1.45,0,0,0,30.24,0,1.44,1.44,0,0,0,28.8-1.44,1.43,1.43,0,0,0,27.36,0,1.44,1.44,0,0,0,28.8,1.44Z"/><path class="cls-2" d="M14.4,1.44A1.45,1.45,0,0,0,15.84,0,1.44,1.44,0,0,0,14.4-1.44,1.43,1.43,0,0,0,13,0,1.44,1.44,0,0,0,14.4,1.44Z"/><path class="cls-2" d="M0,1.44A1.45,1.45,0,0,0,1.44,0,1.44,1.44,0,0,0,0-1.44,1.43,1.43,0,0,0-1.44,0,1.44,1.44,0,0,0,0,1.44Z"/></pattern></defs><g id="圖層_2" data-name="圖層 2"><g id="圖層_1-2" data-name="圖層 1"><path class="cls-3" d="M103.25,86.55v79.1A12.19,12.19,0,0,1,91.1,177.81H31.84a12.19,12.19,0,0,1-12.16-12.16V87.94a1.27,1.27,0,0,1,2.1-1c5.93,5,26.2,16.15,46.9,6,2.44-1.38,2.65,3.26,10.25-.46,5.06-2.48,4.14-5.9,4.14-5.9,7.54-2.66,11.64-2.1,19-1.33A1.28,1.28,0,0,1,103.25,86.55Z"/><path class="cls-4" d="M29.25,67.91h34a1.25,1.25,0,0,1,1.26,1.26V86.49a8.87,8.87,0,0,0,8.85,8.85h0a8.87,8.87,0,0,0,8.85-8.85V80.92a1.26,1.26,0,0,1,1.3-1.25h0c4.87,0,8.85-3.23,8.85-8.09V69.17a1.26,1.26,0,0,1,1.26-1.26h6.11a19.12,19.12,0,0,0,19.06-19.07h0a19.14,19.14,0,0,0-13.49-18.23,1.25,1.25,0,0,1-.87-1.12A31.84,31.84,0,0,0,72.73,0h0A31.72,31.72,0,0,0,47.67,12.33a1.26,1.26,0,0,1-1.51.39,19.19,19.19,0,0,0-7.83-1.67H37.14A19.4,19.4,0,0,0,17.87,28.79a1.26,1.26,0,0,1-1.09,1.13A19.13,19.13,0,0,0,0,48.84H0A19.12,19.12,0,0,0,19.07,67.91H29.25Z"/><path class="cls-5" d="M106.36,70.76v97.83a13.26,13.26,0,0,1-13.22,13.22H28.67a13.26,13.26,0,0,1-13.23-13.22V70.39"/><path class="cls-5" d="M31,67.3H64.11a1.23,1.23,0,0,1,1.23,1.23V85.44A8.67,8.67,0,0,0,74,94.08h0a8.67,8.67,0,0,0,8.64-8.64V80a1.23,1.23,0,0,1,1.27-1.22h0c4.75,0,8.64-3.15,8.64-7.9V68.53a1.23,1.23,0,0,1,1.23-1.23h6a18.67,18.67,0,0,0,18.61-18.61h0a18.69,18.69,0,0,0-13.17-17.8,1.22,1.22,0,0,1-.84-1.1A31.09,31.09,0,0,0,73.42,1h0A31,31,0,0,0,49,13a1.23,1.23,0,0,1-1.47.39,18.68,18.68,0,0,0-7.65-1.64H38.67A19,19,0,0,0,19.85,29.1a1.21,1.21,0,0,1-1.06,1.11A18.67,18.67,0,0,0,2.41,48.69h0A18.67,18.67,0,0,0,21,67.3h5.49"/><path class="cls-5" d="M108.9,77.25h17.89a10.41,10.41,0,0,1,10.14,10.66v56.31a10.41,10.41,0,0,1-10.14,10.66H106.68"/><path class="cls-5" d="M109.93,87.44h13.35a3.23,3.23,0,0,1,3.23,3.22v51a3.23,3.23,0,0,1-3.23,3.22H109.93"/><polyline class="cls-5" points="40.36 133.69 55.38 154.88 89.25 111.12"/></g></g></svg>