<svg xmlns="http://www.w3.org/2000/svg" viewBox="0 0 136.52 182.81"><defs><style>.cls-1{fill:none;stroke:#025959;stroke-linecap:round;stroke-linejoin:round;stroke-width:2px;}</style></defs><g id="圖層_2" data-name="圖層 2"><g id="圖層_1-2" data-name="圖層 1"><path class="cls-1" d="M105,70.76v97.83a13.26,13.26,0,0,1-13.22,13.22H27.26A13.26,13.26,0,0,1,14,168.59V70.39"/><path class="cls-1" d="M29.55,67.3H62.7a1.23,1.23,0,0,1,1.23,1.23V85.44a8.67,8.67,0,0,0,8.64,8.64h0a8.67,8.67,0,0,0,8.64-8.64V80a1.24,1.24,0,0,1,1.27-1.22h0c4.75,0,8.64-3.15,8.64-7.9V68.53a1.23,1.23,0,0,1,1.23-1.23h6a18.67,18.67,0,0,0,18.62-18.61h0a18.69,18.69,0,0,0-13.18-17.8,1.22,1.22,0,0,1-.84-1.1A31.09,31.09,0,0,0,72,1h0A31,31,0,0,0,47.54,13a1.23,1.23,0,0,1-1.47.39,18.65,18.65,0,0,0-7.65-1.64H37.26A19,19,0,0,0,18.44,29.1a1.21,1.21,0,0,1-1.06,1.11A18.68,18.68,0,0,0,1,48.69H1A18.67,18.67,0,0,0,19.61,67.3H25.1"/><path class="cls-1" d="M107.5,77.25h17.88a10.41,10.41,0,0,1,10.14,10.66v56.31a10.41,10.41,0,0,1-10.14,10.66H105.27"/><path class="cls-1" d="M108.52,87.44h13.35a3.23,3.23,0,0,1,3.23,3.22v51a3.23,3.23,0,0,1-3.23,3.22H108.52"/><path class="cls-1" d="M88.41,129.05a27.7,27.7,0,1,1-44-22.38c.38-.28.77-.55,1.16-.8l.6-.39a27.7,27.7,0,0,1,42.25,23.57Z"/><polyline class="cls-1" points="49.65 120.2 60.72 142.61 71.06 120.2"/></g></g></svg>