<svg xmlns="http://www.w3.org/2000/svg" viewBox="0 0 64.02 64.02"><defs><style>.cls-1{fill:none;stroke:#f2edd8;stroke-linecap:round;stroke-linejoin:round;stroke-width:1.5px;}</style></defs><g id="圖層_2" data-name="圖層 2"><g id="圖層_1-2" data-name="圖層 1"><rect class="cls-1" x="0.75" y="0.75" width="62.52" height="62.52" rx="12"/><path class="cls-1" d="M39.06,26.39H34.85V22.27a1.68,1.68,0,0,1,1.68-1.68h2.53a1.17,1.17,0,0,0,1.18-1.17V16.49a1.17,1.17,0,0,0-1.18-1.17H33.6a6.36,6.36,0,0,0-6.36,6.36v4.71H24.75a1.17,1.17,0,0,0-1.17,1.17v2.93a1.17,1.17,0,0,0,1.17,1.17h2.49V47.53a1.17,1.17,0,0,0,1.17,1.17h5.26a1.18,1.18,0,0,0,1.18-1.17V31.66h3.74a1.17,1.17,0,0,0,1.16-1l.47-2.93A1.17,1.17,0,0,0,39.06,26.39Z"/></g></g></svg>