<svg xmlns="http://www.w3.org/2000/svg" viewBox="0 0 1455.35 439.46"><defs><style>.cls-1{fill:#56b8a5;}.cls-2{opacity:0.8;}.cls-3{fill:none;stroke:#f2edd8;stroke-linecap:round;stroke-linejoin:round;stroke-width:0.5px;}.cls-4{fill:#f2edd8;opacity:0.3;}</style></defs><g id="圖層_2" data-name="圖層 2"><g id="圖層_1-2" data-name="圖層 1"><polygon class="cls-1" points="1455.1 0 1345.09 29.48 1161.89 78.56 0.25 389.82 0.25 439.46 1455.1 439.46 1455.1 0"/><g class="cls-2"><line class="cls-3" x1="0.25" y1="406.52" x2="1455.1" y2="16.73"/><polyline class="cls-3" points="1023.14 132.46 1023.14 44.52 1160.87 7.62 1160.87 95.62"/><path class="cls-3" d="M1160.87,7.62,1180,17.17a8.06,8.06,0,0,1,4.46,7.22v46a8.08,8.08,0,0,1-2.51,5.85l-21.06,19.35"/><path class="cls-3" d="M1023.14,44.52l21.75,8.88a8.07,8.07,0,0,1,5,7.47v45.38a8.06,8.06,0,0,1-2.78,6.1l-24,20.11"/><path class="cls-4" d="M1160.87,95.62l21.06-20a8.08,8.08,0,0,0,2.51-5.85v-46a8.06,8.06,0,0,0-4.46-7.21L1160.87,7Z"/><path class="cls-4" d="M1023.14,132.32l24-20.26a8,8,0,0,0,2.78-6.09V60.58a8.06,8.06,0,0,0-5-7.46l-21.75-8.88Z"/><line class="cls-3" x1="1049.2" y1="57.59" x2="1183.6" y2="20.84"/><line class="cls-3" x1="1049.9" y1="108.71" x2="1184.18" y2="72.45"/><path class="cls-4" d="M1048.81,109.57l134.62-36.35a8.12,8.12,0,0,0,.59-3v-46a8.08,8.08,0,0,0-4.46-7.22L1160.45,7.4,1023.14,44.81l21.32,8.7a8.06,8.06,0,0,1,5,7.47v45.38A8.13,8.13,0,0,1,1048.81,109.57Z"/><path class="cls-3" d="M1427.24,24.19,1286.42,159a2.56,2.56,0,0,1-1.13.64L575.75,349.33a2.62,2.62,0,0,1-2.49-4.42L706.58,217.27"/><path class="cls-3" d="M1251,71.42l-63.9,61.23a1.2,1.2,0,0,1-.53.29l-331,88.5a1.23,1.23,0,0,1-1.16-2.07l60.41-57.87"/></g></g></g></svg>