<svg xmlns="http://www.w3.org/2000/svg" viewBox="0 0 1465.45 400.52"><defs><style>.cls-1{opacity:0.8;}.cls-2{fill:none;stroke:#f2edd8;stroke-linecap:round;stroke-linejoin:round;}.cls-3{fill:#f2edd8;opacity:0.3;}</style></defs><g id="圖層_2" data-name="圖層 2"><g id="圖層_1-2" data-name="圖層 1"><g class="cls-1"><line class="cls-2" x1="0.5" y1="400.02" x2="1464.95" y2="7.66"/><polyline class="cls-2" points="1025.28 126.13 1025.28 37.52 1163.02 0.61 1163.02 89.23"/><path class="cls-2" d="M1163,.61l19.12,9.56a8.07,8.07,0,0,1,4.45,7.21v46a8.08,8.08,0,0,1-2.51,5.85l-21.06,20"/><path class="cls-2" d="M1025.28,37.52,1047,46.4a8.08,8.08,0,0,1,5,7.47V99.25a8.09,8.09,0,0,1-2.79,6.1l-24,20.78"/><path class="cls-3" d="M1163,88.61l21.06-20a8.1,8.1,0,0,0,2.51-5.86v-46a8,8,0,0,0-4.45-7.21L1163,0Z"/><path class="cls-3" d="M1025.28,125.85l24-20.79a8.06,8.06,0,0,0,2.79-6.09V53.58a8.08,8.08,0,0,0-5-7.47l-21.75-8.88Z"/><line class="cls-2" x1="1051.34" y1="50.58" x2="1185.74" y2="13.83"/><line class="cls-2" x1="1052.05" y1="101.71" x2="1186.58" y2="65.37"/><path class="cls-3" d="M1051,102.57l134.62-36.36a8.11,8.11,0,0,0,.59-3v-46A8.06,8.06,0,0,0,1181.7,10L1162.59.39,1025.28,37.8l21.33,8.71a8.07,8.07,0,0,1,5,7.47V99.36A8.13,8.13,0,0,1,1051,102.57Z"/><path class="cls-2" d="M1427.11,19.26,1288.56,152a2.51,2.51,0,0,1-1.13.64L577.89,342.32a2.62,2.62,0,0,1-2.48-4.42L707.08,211.74"/><path class="cls-2" d="M1253.86,63.71l-64.64,61.93a1.22,1.22,0,0,1-.53.3l-331,88.49a1.22,1.22,0,0,1-1.16-2.06l61.43-58.86"/></g></g></g></svg>