<svg xmlns="http://www.w3.org/2000/svg" viewBox="0 0 154.49 27.24"><defs><style>.cls-1{fill:#dfdfdf;}</style></defs><g id="圖層_2" data-name="圖層 2"><g id="圖層_1-2" data-name="圖層 1"><path class="cls-1" d="M10.71,15.34a7.71,7.71,0,0,1-.26.77c.92,1.13,2,2.75,2.56,3.58a1.08,1.08,0,0,1,0,1.16l-1.79,2.92c-.28.45-.92.49-1.1.06a23.66,23.66,0,0,0-1.58-3.35A20.18,20.18,0,0,1,2.82,27a.84.84,0,0,1-1.23-.13A15.58,15.58,0,0,0,.18,25.06a.91.91,0,0,1,.26-1.31,16.71,16.71,0,0,0,5.95-8.41H2.5a.73.73,0,0,1-.74-.9l.45-2.52a.74.74,0,0,1,.7-.6H7.42l.1-.56.6-3.41H7.56A29.5,29.5,0,0,1,5.83,10a1,1,0,0,1-1.36.25c-.5-.45-1.12-1-1.66-1.36A.81.81,0,0,1,2.75,7.7a26.45,26.45,0,0,0,3.67-7A1.11,1.11,0,0,1,7.61,0L9.83.48a.75.75,0,0,1,.52,1.06c-.25.63-.51,1.26-.8,1.88h5.61a.74.74,0,0,1,.75.9l-.38,2.13a1.12,1.12,0,0,1-1.06.9h-2l-.61,3.47-.09.5h2.07a.74.74,0,0,1,.75.9l-.4,2.22a1.11,1.11,0,0,1-1.06.9Z"/><path class="cls-1" d="M26.94,3.22H18a1.12,1.12,0,0,0-1.06.9L14,20.65a.73.73,0,0,0,.74.9h2.34a1.13,1.13,0,0,0,1.06-.9l.2-1.13h2.86l-.12.66a.74.74,0,0,0,.74.9h2a1.12,1.12,0,0,0,1.05-.9L27.68,4.12A.74.74,0,0,0,26.94,3.22Zm-4.88,12a.47.47,0,0,1-.47.36H19.54a.31.31,0,0,1-.34-.36l1.34-7.61A.47.47,0,0,1,21,7.21h2a.31.31,0,0,1,.34.35Z"/><path class="cls-1" d="M42.24,21.23a24.72,24.72,0,0,0,4.21.29c1.18,0,2.52,0,4.54,0a.68.68,0,0,1,.56,1.09A20.68,20.68,0,0,0,50.36,25a1,1,0,0,1-.89.61h-4c-5.75,0-9.6-.5-12-4.76a19.74,19.74,0,0,1-4,4.77.8.8,0,0,1-1.15,0,19.69,19.69,0,0,0-1.58-1.81.68.68,0,0,1,.13-1,15.76,15.76,0,0,0,5.17-8.34.85.85,0,0,1,.86-.61l3,.36a.57.57,0,0,1,.43.83c-.13.31-.19.4-.53,1.18.52,1.88.94,2.65,2.29,3.53l1.31-7.15H32.76a.65.65,0,0,1-.66-.81l1.68-9.55a1,1,0,0,1,.95-.8H51.64a.65.65,0,0,1,.66.8L50.62,11.8a1,1,0,0,1-.95.81H43.82l-.34,1.57h6.86A.65.65,0,0,1,51,15l-.41,2.33a1,1,0,0,1-1,.81H42.79ZM37.15,8.55h9.26a.28.28,0,0,0,.27-.22l.45-2.58A.18.18,0,0,0,47,5.53H37.69a.28.28,0,0,0-.27.22L37,8.33A.18.18,0,0,0,37.15,8.55Z"/><path class="cls-1" d="M59.51,10.49H57.44A.4.4,0,0,1,57,10l.46-2.64a.22.22,0,0,0-.22-.27H54.63a.41.41,0,0,1-.41-.5l.36-2.08a.63.63,0,0,1,.59-.5h2.64a.34.34,0,0,0,.32-.27l.47-2.64a.62.62,0,0,1,.59-.5h2.07a.4.4,0,0,1,.41.5l-.46,2.64a.22.22,0,0,0,.22.27h2.64a.42.42,0,0,1,.42.5l-.37,2.08a.63.63,0,0,1-.59.5H60.89a.34.34,0,0,0-.32.27L60.11,10A.63.63,0,0,1,59.51,10.49Z"/><path class="cls-1" d="M97.91,5.57v5.14h-.6L94.22,6.87v3.84h-.73V5.57h.6L97.18,9.4V5.57Z"/><path class="cls-1" d="M100.66,10.42a2.53,2.53,0,0,1-1-.94,2.76,2.76,0,0,1,0-2.69,2.6,2.6,0,0,1,1-.94,2.88,2.88,0,0,1,1.41-.34,2.81,2.81,0,0,1,1.39.34,2.53,2.53,0,0,1,1,.94,2.66,2.66,0,0,1,.35,1.35,2.63,2.63,0,0,1-.35,1.34,2.46,2.46,0,0,1-1,.94,2.81,2.81,0,0,1-1.39.35A2.89,2.89,0,0,1,100.66,10.42Zm2.42-.57a1.93,1.93,0,0,0,.72-.7,2.05,2.05,0,0,0,.26-1,2,2,0,0,0-.26-1,2,2,0,0,0-.72-.71,2,2,0,0,0-1-.26,2.1,2.1,0,0,0-1,.26,2,2,0,0,0-.72.71,2,2,0,0,0-.26,1,2.05,2.05,0,0,0,.26,1,1.93,1.93,0,0,0,.72.7,2,2,0,0,0,1,.26A1.93,1.93,0,0,0,103.08,9.85Z"/><path class="cls-1" d="M109.21,6.2V8h2.58v.63h-2.58v2.08h-.73V5.57h3.63V6.2Z"/><path class="cls-1" d="M114.29,10.42a2.53,2.53,0,0,1-1-.94,2.76,2.76,0,0,1,0-2.69,2.6,2.6,0,0,1,1-.94,2.88,2.88,0,0,1,1.41-.34,2.81,2.81,0,0,1,1.39.34,2.53,2.53,0,0,1,1,.94,2.66,2.66,0,0,1,.35,1.35,2.63,2.63,0,0,1-.35,1.34,2.46,2.46,0,0,1-1,.94,2.81,2.81,0,0,1-1.39.35A2.89,2.89,0,0,1,114.29,10.42Zm2.42-.57a1.86,1.86,0,0,0,.72-.7,2.05,2.05,0,0,0,.26-1,2,2,0,0,0-.26-1,1.89,1.89,0,0,0-.72-.71,2,2,0,0,0-1-.26,2.1,2.1,0,0,0-1,.26,2,2,0,0,0-.72.71,2,2,0,0,0-.26,1,2.05,2.05,0,0,0,.26,1,1.93,1.93,0,0,0,.72.7,2,2,0,0,0,1,.26A1.93,1.93,0,0,0,116.71,9.85Z"/><path class="cls-1" d="M120.76,10.42a2.4,2.4,0,0,1-1-.94,2.69,2.69,0,0,1,0-2.69,2.47,2.47,0,0,1,1-.94,2.82,2.82,0,0,1,1.4-.34,2.87,2.87,0,0,1,1.4.34,2.51,2.51,0,0,1,1,.94,2.57,2.57,0,0,1,.35,1.35,2.53,2.53,0,0,1-.35,1.34,2.44,2.44,0,0,1-1,.94,2.88,2.88,0,0,1-1.4.35A2.82,2.82,0,0,1,120.76,10.42Zm2.42-.57a1.84,1.84,0,0,0,.71-.7,2.05,2.05,0,0,0,.26-1,2,2,0,0,0-.26-1,1.86,1.86,0,0,0-.71-.71,2.13,2.13,0,0,0-2,0,1.82,1.82,0,0,0-.72.71,1.9,1.9,0,0,0-.26,1,2,2,0,0,0,.26,1,1.8,1.8,0,0,0,.72.7,2.13,2.13,0,0,0,2,0Z"/><path class="cls-1" d="M127.25,6.2h-1.76V5.57h4.25V6.2H128v4.51h-.73Z"/><path class="cls-1" d="M135,8.49a1.32,1.32,0,0,1,.25.83,1.18,1.18,0,0,1-.5,1,2.48,2.48,0,0,1-1.46.36h-2.46V5.57h2.31a2.23,2.23,0,0,1,1.36.35,1.13,1.13,0,0,1,.48,1,1.3,1.3,0,0,1-.18.7,1.23,1.23,0,0,1-.51.45A1.29,1.29,0,0,1,135,8.49Zm-3.43-2.33V7.81h1.5a1.51,1.51,0,0,0,.87-.21.7.7,0,0,0,.31-.62.68.68,0,0,0-.31-.61,1.51,1.51,0,0,0-.87-.21Zm2.63,3.75a.73.73,0,0,0,.31-.65c0-.57-.42-.86-1.25-.86h-1.69v1.71h1.69A1.83,1.83,0,0,0,134.2,9.91Z"/><path class="cls-1" d="M140,9.42h-2.73l-.57,1.29h-.75l2.33-5.14H139l2.34,5.14h-.77Zm-.25-.59L138.6,6.31l-1.11,2.52Z"/><path class="cls-1" d="M142.36,5.57h.73v4.5h2.78v.64h-3.51Z"/><path class="cls-1" d="M147,5.57h.74v4.5h2.78v.64H147Z"/><path class="cls-1" d="M154.35,9.89a.48.48,0,0,1,.14.35.78.78,0,0,1,0,.22,2.07,2.07,0,0,1-.1.31l-.34,1h-.46l.27-1.09a.5.5,0,0,1-.23-.17.55.55,0,0,1-.08-.29.52.52,0,0,1,.14-.36.48.48,0,0,1,.35-.14A.43.43,0,0,1,154.35,9.89Z"/><path class="cls-1" d="M97.91,16v5.14h-.6l-3.09-3.84v3.84h-.73V16h.6l3.09,3.83V16Z"/><path class="cls-1" d="M100.66,20.82a2.53,2.53,0,0,1-1-.94,2.76,2.76,0,0,1,0-2.69,2.6,2.6,0,0,1,1-.94,2.88,2.88,0,0,1,1.41-.34,2.81,2.81,0,0,1,1.39.34,2.53,2.53,0,0,1,1,.94,2.66,2.66,0,0,1,.35,1.35,2.6,2.6,0,0,1-.35,1.34,2.46,2.46,0,0,1-1,.94,2.81,2.81,0,0,1-1.39.35A2.89,2.89,0,0,1,100.66,20.82Zm2.42-.57a1.93,1.93,0,0,0,.72-.7,2,2,0,0,0,.26-1,2,2,0,0,0-.26-1,2,2,0,0,0-.72-.71,2,2,0,0,0-1-.26,2.1,2.1,0,0,0-1,.26,2,2,0,0,0-.72.71,2,2,0,0,0-.26,1,2,2,0,0,0,.26,1,1.93,1.93,0,0,0,.72.7,2,2,0,0,0,1,.26A1.93,1.93,0,0,0,103.08,20.25Z"/><path class="cls-1" d="M108.48,16h.73v4.5H112v.64h-3.52Z"/><path class="cls-1" d="M113.13,16h.74v5.14h-.74Z"/><path class="cls-1" d="M116.44,16.6v1.8H119V19h-2.58v2.08h-.74V16h3.63v.63Z"/><path class="cls-1" d="M124.39,20.47v.64h-3.73V16h3.63v.63H121.4v1.58H124v.63H121.4v1.66Z"/><path class="cls-1" d="M125.66,21a.53.53,0,0,1-.14-.37.48.48,0,0,1,.14-.35.49.49,0,0,1,.36-.15.48.48,0,0,1,.34.14.52.52,0,0,1,.14.36.53.53,0,0,1-.14.37.49.49,0,0,1-.34.14A.52.52,0,0,1,125.66,21Z"/><rect class="cls-1" x="78.59" y="1.45" width="0.39" height="23.11"/></g></g></svg>