<svg xmlns="http://www.w3.org/2000/svg" viewBox="0 0 30.86 27.89"><defs><style>.cls-1{fill:#f2edd8;stroke:#f2edd8;stroke-miterlimit:10;stroke-width:0.5px;}</style></defs><g id="圖層_2" data-name="圖層 2"><g id="圖層_1-2" data-name="圖層 1"><path class="cls-1" d="M23.45,27.11l-7.56-12.6a1.09,1.09,0,0,1,0-1.13L23.45.78a1.1,1.1,0,0,1,.94-.53h5.12a1.09,1.09,0,0,1,.94,1.66L23.57,13.38a1.09,1.09,0,0,0,0,1.13L30.45,26a1.09,1.09,0,0,1-.94,1.66H24.39A1.1,1.1,0,0,1,23.45,27.11Z"/><path class="cls-1" d="M8,27.11.41,14.51a1.09,1.09,0,0,1,0-1.13L8,.78A1.07,1.07,0,0,1,8.9.25H14A1.1,1.1,0,0,1,15,1.91L8.08,13.38a1.14,1.14,0,0,0,0,1.13L15,26A1.1,1.1,0,0,1,14,27.64H8.9A1.07,1.07,0,0,1,8,27.11Z"/></g></g></svg>