<svg xmlns="http://www.w3.org/2000/svg" viewBox="0 0 30.86 27.89"><defs><style>.cls-1{fill:#f2edd8;stroke:#f2edd8;stroke-miterlimit:10;stroke-width:0.5px;}</style></defs><g id="圖層_2" data-name="圖層 2"><g id="圖層_1-2" data-name="圖層 1"><path class="cls-1" d="M7.41.78,15,13.38a1.09,1.09,0,0,1,0,1.13L7.41,27.11a1.09,1.09,0,0,1-.94.53H1.35A1.1,1.1,0,0,1,.41,26L7.29,14.51a1.09,1.09,0,0,0,0-1.13L.41,1.91A1.1,1.1,0,0,1,1.35.25H6.47A1.09,1.09,0,0,1,7.41.78Z"/><path class="cls-1" d="M22.9.78l7.55,12.6a1.09,1.09,0,0,1,0,1.13L22.9,27.11a1.1,1.1,0,0,1-.94.53H16.83A1.1,1.1,0,0,1,15.89,26l6.89-11.47a1.14,1.14,0,0,0,0-1.13L15.89,1.91A1.1,1.1,0,0,1,16.83.25H22A1.1,1.1,0,0,1,22.9.78Z"/></g></g></svg>